<svg id="Ebene_1" data-name="Ebene 1" xmlns="http://www.w3.org/2000/svg" width="40" height="40" viewBox="0 0 40 40"><rect x="0.38" y="0.38" width="39.25" height="39.25" fill="#fff"/><path d="M39.25.75v38.5H.75V.75h38.5M40,0H0V40H40V0Z"/><text transform="translate(5.26 32.37)" font-size="38.55" fill="#1d1d1b" font-family="Barlow-Black, Barlow" font-weight="800">R</text><path d="M30.69,29.4a2.36,2.36,0,0,1,1.07-1.94,2.23,2.23,0,0,1,2.73.15L35,27a2.9,2.9,0,0,0-2.58-.66,3,3,0,0,0-1.76,1.08,3.13,3.13,0,0,0-.69,1.95h-.77l1.16,1.54,1.16-1.54Zm6.19,0-1.15-1.55L34.56,29.4h.78a2.32,2.32,0,0,1-3.79,1.78l-.46.58a2.86,2.86,0,0,0,2.57.66,2.93,2.93,0,0,0,1.52-.81,3.12,3.12,0,0,0,.94-2.21Z" fill="#fff" stroke="#000" stroke-miterlimit="10" stroke-width="0.5"/><path d="M30.69,29.4h.78l-1.16,1.54L29.15,29.4h.77a3.13,3.13,0,0,1,.69-1.95,3,3,0,0,1,1.76-1.08A2.9,2.9,0,0,1,35,27l-.46.58a2.23,2.23,0,0,0-2.73-.15A2.36,2.36,0,0,0,30.69,29.4Z" stroke="#000" stroke-miterlimit="10" stroke-width="0.5"/><path d="M36.88,29.4h-.76a3.12,3.12,0,0,1-.94,2.21,2.93,2.93,0,0,1-1.52.81,2.86,2.86,0,0,1-2.57-.66l.46-.58a2.32,2.32,0,0,0,3.79-1.78h-.78l1.17-1.55Z" stroke="#000" stroke-miterlimit="10" stroke-width="0.5"/></svg>