<svg id="Ebene_1" data-name="Ebene 1" xmlns="http://www.w3.org/2000/svg" width="40" height="40" viewBox="0 0 40 40"><rect x="0.38" y="0.38" width="39.25" height="39.25" fill="#fff"/><path d="M39.25.75v38.5H.75V.75h38.5M40,0H0V40H40V0Z"/><text transform="translate(6.26 32.37)" font-size="38.55" fill="#1d1d1b" font-family="Barlow-Black, Barlow" font-weight="800">Z</text><path d="M35,28.51a.18.18,0,0,1,.06.15v1.76a.21.21,0,0,1-.21.21H33.32s-.07,0-.07.06v1.58a.25.25,0,0,1,0,.15.2.2,0,0,1-.15,0H31.28a.18.18,0,0,1-.2-.2V30.69s0-.06-.07-.06H29.43a.2.2,0,0,1-.15-.06.21.21,0,0,1-.05-.15V28.66a.21.21,0,0,1,.05-.15.2.2,0,0,1,.15-.06H31a.06.06,0,0,0,.07-.07V26.81a.17.17,0,0,1,.05-.15.2.2,0,0,1,.15-.06h1.77a.2.2,0,0,1,.15.06.21.21,0,0,1,0,.15v1.57c0,.05,0,.07.07.07h1.57A.18.18,0,0,1,35,28.51Z" fill="#1d1d1b"/></svg>