<svg id="Ebene_1" data-name="Ebene 1" xmlns="http://www.w3.org/2000/svg" width="40" height="40" viewBox="0 0 40 40"><rect x="0.38" y="0.38" width="39.25" height="39.25" fill="#fff"/><path d="M39.25.75v38.5H.75V.75h38.5M40,0H0V40H40V0Z"/><text transform="translate(6.26 32.37)" font-size="38.55" fill="#1d1d1b" font-family="Barlow-Black, Barlow" font-weight="800">Z</text><path d="M29.83,31a.18.18,0,0,1-.06-.15V29a.21.21,0,0,1,.21-.21h4.69a.17.17,0,0,1,.14.06.18.18,0,0,1,.06.15V30.8a.18.18,0,0,1-.06.15.17.17,0,0,1-.14.06H30A.18.18,0,0,1,29.83,31Z" fill="#1d1d1b"/></svg>